<svg width="16" height="16" viewBox="0 0 16 16" fill="none" xmlns="http://www.w3.org/2000/svg">
<path d="M0 14C0 15.1046 0.895431 16 2 16H14C15.1046 16 16 15.1046 16 14V2C16 0.895431 15.1046 0 14 0H2C0.895431 0 0 0.895431 0 2V14ZM4.5 7.5H10.2929L8.14645 5.35355C7.95118 5.15829 7.95118 4.84171 8.14645 4.64645C8.34171 4.45118 8.65829 4.45118 8.85355 4.64645L11.8536 7.64645C12.0488 7.84171 12.0488 8.15829 11.8536 8.35355L8.85355 11.3536C8.65829 11.5488 8.34171 11.5488 8.14645 11.3536C7.95118 11.1583 7.95118 10.8417 8.14645 10.6464L10.2929 8.5H4.5C4.22386 8.5 4 8.27614 4 8C4 7.72386 4.22386 7.5 4.5 7.5Z" fill="black"/>
</svg>
