<svg width="16" height="16" viewBox="0 0 16 16" fill="none" xmlns="http://www.w3.org/2000/svg">
<path d="M16 14C16 15.1046 15.1046 16 14 16H2C0.895431 16 0 15.1046 0 14V2C0 0.895431 0.895431 0 2 0H14C15.1046 0 16 0.895431 16 2V14ZM11.5 7.5H5.70711L7.85355 5.35355C8.04882 5.15829 8.04882 4.84171 7.85355 4.64645C7.65829 4.45118 7.34171 4.45118 7.14645 4.64645L4.14645 7.64645C3.95118 7.84171 3.95118 8.15829 4.14645 8.35355L7.14645 11.3536C7.34171 11.5488 7.65829 11.5488 7.85355 11.3536C8.04882 11.1583 8.04882 10.8417 7.85355 10.6464L5.70711 8.5H11.5C11.7761 8.5 12 8.27614 12 8C12 7.72386 11.7761 7.5 11.5 7.5Z" fill="black"/>
</svg>
